<svg xmlns="http://www.w3.org/2000/svg" width="1120" height="735" viewBox="0 0 1120 735">
<rect width="100%" height="100%" rx="14" fill="#0e1728"/>
<style>text{font-family:Arial,sans-serif;fill:#e8edf6}.small{font-size:12px;fill:#aebcd0}</style>
<text x="28" y="40" font-size="25" class="">Fresh comparison: trained memory with frozen inference</text>
<text x="28" y="65" font-size="13" class="small">Each phase starts with $1,000. Learned state comes from training; development is not carried into test.</text>
<text x="28" y="87" font-size="13" class="small">All panels share one dollar scale. Red points include an unavailable pool quote; cash may still be fully priced.</text>
<text x="260" y="123" font-size="15" class="">Training  10:20–10:35 UTC</text>
<text x="540" y="123" font-size="15" class="">Development  10:35–10:50 UTC</text>
<text x="820" y="123" font-size="15" class="">Test  10:50–11:05 UTC</text>
<text x="28" y="175" font-size="15" class="">Original / frozen</text>
<text x="28" y="197" font-size="12" class="small">$965.93–$1012.93</text>
<rect x="260" y="145" width="238" height="86" fill="#172237" stroke="#35445c"/>
<path d="M260,168.65779209943219H498" stroke="#75859c" stroke-dasharray="4 4"/>
<polyline points="260.0,168.65779209943219 339.3333333333333,168.65779209943219 418.66666666666663,168.65779209943219 498.0,171.13641671865923" fill="none" stroke="#67e8cf" stroke-width="2"/>
<circle cx="260.0" cy="168.65779209943219" r="3.5" fill="#ff8e8e"/>
<circle cx="339.3333333333333" cy="168.65779209943219" r="3.5" fill="#ff8e8e"/>
<circle cx="418.66666666666663" cy="168.65779209943219" r="3.5" fill="#67e8cf"/>
<circle cx="498.0" cy="171.13641671865923" r="3.5" fill="#67e8cf"/>
<text x="260" y="253" font-size="13" class="">$998.65 · 1 fills · $0.312 fees</text>
<text x="260" y="271" font-size="12" class="small">4/6 decisions observed</text>
<rect x="540" y="145" width="238" height="86" fill="#172237" stroke="#35445c"/>
<path d="M540,168.65779209943219H778" stroke="#75859c" stroke-dasharray="4 4"/>
<polyline points="540.0,168.65779209943219 619.3333333333334,171.13641671865923 698.6666666666666,217.45130990278219 778.0,220.19879473561173" fill="none" stroke="#67e8cf" stroke-width="2"/>
<circle cx="540.0" cy="168.65779209943219" r="3.5" fill="#67e8cf"/>
<circle cx="619.3333333333334" cy="171.13641671865923" r="3.5" fill="#67e8cf"/>
<circle cx="698.6666666666666" cy="217.45130990278219" r="3.5" fill="#ff8e8e"/>
<circle cx="778.0" cy="220.19879473561173" r="3.5" fill="#ff8e8e"/>
<text x="540" y="253" font-size="13" class="">$971.83 · 2 fills · $0.625 fees</text>
<text x="540" y="271" font-size="12" class="small">5/6 decisions observed</text>
<rect x="820" y="145" width="238" height="86" fill="#172237" stroke="#35445c"/>
<path d="M820,168.65779209943219H1058" stroke="#75859c" stroke-dasharray="4 4"/>
<polyline points="820.0,168.65779209943219 899.3333333333334,171.13641671865923 978.6666666666666,169.8464394813756 1058.0,153.32258064516122" fill="none" stroke="#67e8cf" stroke-width="2"/>
<circle cx="820.0" cy="168.65779209943219" r="3.5" fill="#ff8e8e"/>
<circle cx="899.3333333333334" cy="171.13641671865923" r="3.5" fill="#67e8cf"/>
<circle cx="978.6666666666666" cy="169.8464394813756" r="3.5" fill="#ff8e8e"/>
<circle cx="1058.0" cy="153.32258064516122" r="3.5" fill="#67e8cf"/>
<text x="820" y="253" font-size="13" class="">$1008.38 · 2 fills · $0.625 fees</text>
<text x="820" y="271" font-size="12" class="small">4/6 decisions observed</text>
<text x="28" y="330" font-size="15" class="">Trained / frozen inference</text>
<text x="28" y="352" font-size="12" class="small">$965.93–$1012.93</text>
<rect x="260" y="300" width="238" height="86" fill="#172237" stroke="#35445c"/>
<path d="M260,323.6577920994322H498" stroke="#75859c" stroke-dasharray="4 4"/>
<polyline points="260.0,323.6577920994322 339.3333333333333,323.6577920994322 418.66666666666663,323.6577920994322 498.0,326.13641671865923" fill="none" stroke="#67e8cf" stroke-width="2"/>
<circle cx="260.0" cy="323.6577920994322" r="3.5" fill="#ff8e8e"/>
<circle cx="339.3333333333333" cy="323.6577920994322" r="3.5" fill="#ff8e8e"/>
<circle cx="418.66666666666663" cy="323.6577920994322" r="3.5" fill="#67e8cf"/>
<circle cx="498.0" cy="326.13641671865923" r="3.5" fill="#67e8cf"/>
<text x="260" y="408" font-size="13" class="">$998.65 · 1 fills · $0.312 fees</text>
<text x="260" y="426" font-size="12" class="small">4/6 decisions observed</text>
<rect x="540" y="300" width="238" height="86" fill="#172237" stroke="#35445c"/>
<path d="M540,323.6577920994322H778" stroke="#75859c" stroke-dasharray="4 4"/>
<polyline points="540.0,323.6577920994322 619.3333333333334,326.13641671865923 698.6666666666666,372.45130990278216 778.0,377.6774193548388" fill="none" stroke="#67e8cf" stroke-width="2"/>
<circle cx="540.0" cy="323.6577920994322" r="3.5" fill="#67e8cf"/>
<circle cx="619.3333333333334" cy="326.13641671865923" r="3.5" fill="#67e8cf"/>
<circle cx="698.6666666666666" cy="372.45130990278216" r="3.5" fill="#ff8e8e"/>
<circle cx="778.0" cy="377.6774193548388" r="3.5" fill="#ff8e8e"/>
<text x="540" y="408" font-size="13" class="">$970.48 · 3 fills · $0.938 fees</text>
<text x="540" y="426" font-size="12" class="small">5/6 decisions observed</text>
<rect x="820" y="300" width="238" height="86" fill="#172237" stroke="#35445c"/>
<path d="M820,323.6577920994322H1058" stroke="#75859c" stroke-dasharray="4 4"/>
<polyline points="820.0,323.6577920994322 899.3333333333334,326.13641671865923 978.6666666666666,322.3678148621486 1058.0,313.76538309587943" fill="none" stroke="#67e8cf" stroke-width="2"/>
<circle cx="820.0" cy="323.6577920994322" r="3.5" fill="#ff8e8e"/>
<circle cx="899.3333333333334" cy="326.13641671865923" r="3.5" fill="#67e8cf"/>
<circle cx="978.6666666666666" cy="322.3678148621486" r="3.5" fill="#ff8e8e"/>
<circle cx="1058.0" cy="313.76538309587943" r="3.5" fill="#67e8cf"/>
<text x="820" y="408" font-size="13" class="">$1005.41 · 1 fills · $0.312 fees</text>
<text x="820" y="426" font-size="12" class="small">4/6 decisions observed</text>
<text x="28" y="485" font-size="15" class="">Original / learning</text>
<text x="28" y="507" font-size="12" class="small">$965.93–$1012.93</text>
<rect x="260" y="455" width="238" height="86" fill="#172237" stroke="#35445c"/>
<path d="M260,478.6577920994322H498" stroke="#75859c" stroke-dasharray="4 4"/>
<polyline points="260.0,478.6577920994322 339.3333333333333,478.6577920994322 418.66666666666663,478.6577920994322 498.0,481.13641671865923" fill="none" stroke="#67e8cf" stroke-width="2"/>
<circle cx="260.0" cy="478.6577920994322" r="3.5" fill="#ff8e8e"/>
<circle cx="339.3333333333333" cy="478.6577920994322" r="3.5" fill="#ff8e8e"/>
<circle cx="418.66666666666663" cy="478.6577920994322" r="3.5" fill="#67e8cf"/>
<circle cx="498.0" cy="481.13641671865923" r="3.5" fill="#67e8cf"/>
<text x="260" y="563" font-size="13" class="">$998.65 · 1 fills · $0.312 fees</text>
<text x="260" y="581" font-size="12" class="small">4/6 decisions observed</text>
<rect x="540" y="455" width="238" height="86" fill="#172237" stroke="#35445c"/>
<path d="M540,478.6577920994322H778" stroke="#75859c" stroke-dasharray="4 4"/>
<polyline points="540.0,478.6577920994322 619.3333333333334,481.13641671865923 698.6666666666666,527.4513099027822 778.0,530.1987947356117" fill="none" stroke="#67e8cf" stroke-width="2"/>
<circle cx="540.0" cy="478.6577920994322" r="3.5" fill="#67e8cf"/>
<circle cx="619.3333333333334" cy="481.13641671865923" r="3.5" fill="#67e8cf"/>
<circle cx="698.6666666666666" cy="527.4513099027822" r="3.5" fill="#ff8e8e"/>
<circle cx="778.0" cy="530.1987947356117" r="3.5" fill="#ff8e8e"/>
<text x="540" y="563" font-size="13" class="">$971.83 · 2 fills · $0.625 fees</text>
<text x="540" y="581" font-size="12" class="small">5/6 decisions observed</text>
<rect x="820" y="455" width="238" height="86" fill="#172237" stroke="#35445c"/>
<path d="M820,478.6577920994322H1058" stroke="#75859c" stroke-dasharray="4 4"/>
<polyline points="820.0,478.6577920994322 899.3333333333334,481.13641671865923 978.6666666666666,479.84643948137557 1058.0,463.3225806451612" fill="none" stroke="#67e8cf" stroke-width="2"/>
<circle cx="820.0" cy="478.6577920994322" r="3.5" fill="#ff8e8e"/>
<circle cx="899.3333333333334" cy="481.13641671865923" r="3.5" fill="#67e8cf"/>
<circle cx="978.6666666666666" cy="479.84643948137557" r="3.5" fill="#ff8e8e"/>
<circle cx="1058.0" cy="463.3225806451612" r="3.5" fill="#67e8cf"/>
<text x="820" y="563" font-size="13" class="">$1008.38 · 2 fills · $0.625 fees</text>
<text x="820" y="581" font-size="12" class="small">4/6 decisions observed</text>
<text x="28" y="635" font-size="15" class="">Development selection: No arm passed the cash and frozen-baseline gate.</text>
<text x="28" y="659" font-size="13" class="small">Simulated DEX fees/slippage included; hosting excluded. Unavailable inventory uses stress valuation. News disabled.</text>
<text x="28" y="680" font-size="13" class="small">Short retrospective experiment; this is not a monthly return estimate or evidence of executable live profit.</text>
</svg>
